<?xml version="1.0" encoding="UTF-8" standalone="no"?>
<!-- Created with Inkscape (http://www.inkscape.org/) -->

<svg
   width="152.83882mm"
   height="152.83882mm"
   viewBox="0 0 152.83882 152.83882"
   version="1.1"
   id="svg1"
   xml:space="preserve"
   inkscape:version="1.3.2 (091e20e, 2023-11-25)"
   sodipodi:docname="shuleplus.svg"
   inkscape:export-filename="../../../../../../Downloads/shuleplus_icon.png"
   inkscape:export-xdpi="95"
   inkscape:export-ydpi="95"
   xmlns:inkscape="http://www.inkscape.org/namespaces/inkscape"
   xmlns:sodipodi="http://sodipodi.sourceforge.net/DTD/sodipodi-0.dtd"
   xmlns="http://www.w3.org/2000/svg"
   xmlns:svg="http://www.w3.org/2000/svg"><sodipodi:namedview
     id="namedview1"
     pagecolor="#ffffff"
     bordercolor="#666666"
     borderopacity="1.0"
     inkscape:showpageshadow="2"
     inkscape:pageopacity="0.0"
     inkscape:pagecheckerboard="0"
     inkscape:deskcolor="#d1d1d1"
     inkscape:document-units="mm"
     inkscape:zoom="0.94519501"
     inkscape:cx="167.69026"
     inkscape:cy="330.6196"
     inkscape:window-width="2016"
     inkscape:window-height="1146"
     inkscape:window-x="286"
     inkscape:window-y="52"
     inkscape:window-maximized="0"
     inkscape:current-layer="layer1" /><defs
     id="defs1" /><g
     inkscape:label="Layer 1"
     inkscape:groupmode="layer"
     id="layer1"
     transform="translate(-20.714418,-9.2375126)"><path
       style="fill:#000000;stroke-width:1.13199"
       d="M 89.853308,148.33978 C 71.345861,146.0345 54.992857,135.50202 44.960412,119.42561 36.378402,105.67345 33.749662,88.163777 37.866793,72.176011 40.292898,62.754886 45.041861,53.923017 51.752942,46.351284 54.818571,42.892507 60.758581,37.843965 63.942524,35.991096 l 1.16436,-0.677591 -1.624072,1.786513 c -8.019859,8.822017 -13.463816,20.616017 -15.127686,32.773201 -0.602499,4.402213 -0.602274,11.79775 4.95e-4,16.197302 4.821373,35.190689 38.196986,58.840479 73.058109,51.768599 5.68562,-1.15336 14.12088,-4.37033 18.34465,-6.99611 2.21966,-1.37989 1.38258,-0.29173 -2.03502,2.64538 -8.66704,7.44857 -18.41576,12.16914 -29.54059,14.30431 -3.69818,0.70977 -14.447516,1.03061 -18.329462,0.54708 z m -20.266247,-25.7057 c -1.438617,-0.65347 -2.644238,-2.00118 -3.143503,-3.51397 -0.431416,-1.3072 -0.203227,-3.75219 0.435266,-4.66378 0.248174,-0.35431 2.718481,-2.94654 5.489574,-5.76051 2.771091,-2.81398 5.403181,-5.59911 5.849087,-6.18918 0.445906,-0.59006 1.75098,-3.404684 2.900164,-6.254714 1.149185,-2.850025 2.164376,-5.256815 2.255982,-5.348416 0.0916,-0.09158 0.392471,0.155977 0.668589,0.550191 0.276118,0.394214 2.220612,2.59651 4.321097,4.893985 l 3.819063,4.177244 -0.457911,1.07803 c -0.25185,0.59292 -0.768958,1.89571 -1.149127,2.89509 -0.380168,0.99939 -0.991009,2.41455 -1.357423,3.14479 -0.820119,1.63448 -13.131134,14.14496 -14.739588,14.9784 -1.392948,0.72179 -3.319384,0.72684 -4.89127,0.0128 z m 39.698869,0.0859 c -1.27687,-0.55372 -2.30826,-1.48691 -2.89929,-2.62322 -0.24432,-0.46972 -1.31103,-4.29501 -2.37047,-8.50066 -1.11811,-4.43853 -2.24282,-8.22684 -2.6808,-9.02961 -0.415,-0.76064 -3.582141,-4.460874 -7.038081,-8.222719 -3.455946,-3.761844 -6.60931,-7.400826 -7.007476,-8.086617 -1.049473,-1.807588 -1.76206,-4.843981 -1.554386,-6.623372 0.09519,-0.815605 0.796627,-3.957714 1.558749,-6.982464 0.76212,-3.024751 1.309579,-5.575641 1.216573,-5.668647 -0.310741,-0.310741 -5.073955,1.80158 -6.106169,2.707875 -0.560225,0.491884 -1.542979,1.937291 -2.183899,3.212017 -1.941066,3.86059 -4.87184,5.130652 -8.069495,3.496944 -2.095965,-1.070846 -3.099972,-2.568653 -3.244628,-4.840432 -0.114626,-1.800167 -0.04242,-2.050428 1.401056,-4.855809 2.652472,-5.15506 5.044135,-7.263924 11.166301,-9.845952 7.247035,-3.056443 10.057953,-3.762363 14.983864,-3.762973 4.763891,-5.88e-4 8.316951,1.173242 12.140611,4.010915 3.39744,2.521357 5.44653,5.668319 7.44392,11.432258 l 1.24546,3.594054 2.79958,1.508329 c 3.06457,1.651098 4.24203,2.987809 4.62415,5.249603 0.37632,2.227353 -1.02931,4.890123 -3.15344,5.973772 -2.07072,1.056403 -3.7367,0.827402 -7.42022,-1.019953 -4.99933,-2.507257 -6.98527,-4.639743 -8.31929,-8.933183 l -0.53257,-1.713999 -1.43413,5.607557 c -0.78877,3.084154 -1.4392,5.889497 -1.44539,6.234085 -0.007,0.398335 1.61992,2.411684 4.46754,5.528119 2.46335,2.695893 4.81785,5.524548 5.23225,6.285938 0.90939,1.67085 5.26416,18.696824 5.26416,20.581444 0,4.02284 -4.3856,6.89073 -8.08448,5.2867 z m 13.89488,-2.33824 c -0.87106,-0.87105 -1.01832,-1.2232 -1.01832,-2.43505 0,-1.40802 0.0226,-1.43997 3.68866,-5.1964 l 3.68866,-3.77968 1.4347,-3.49339 1.43471,-3.49339 0.93384,1.09735 c 0.5136,0.60356 1.70776,1.9398 2.65367,2.96945 l 1.71983,1.87209 -1.03268,2.4486 c -1.08614,2.57533 -1.16218,2.67341 -5.29687,6.8321 -3.94052,3.96338 -4.26472,4.19663 -5.83314,4.19663 -1.14135,0 -1.51515,-0.1604 -2.37306,-1.01831 z m 23.71096,0.0449 c -0.81228,-0.81664 -1.10379,-1.52807 -1.8101,-4.4177 -1.72612,-7.06178 -1.51511,-6.6553 -5.99071,-11.54034 -2.21411,-2.41667 -4.30064,-4.961984 -4.63672,-5.656254 -0.8315,-1.71764 -0.76834,-3.550025 0.26152,-7.5874 0.56194,-2.202969 0.74111,-3.36339 0.51758,-3.351991 -0.18805,0.01019 -1.08318,0.380223 -1.98918,0.823644 -1.33476,0.653247 -1.80036,1.090306 -2.45419,2.303727 -1.1449,2.124755 -2.07994,2.845295 -3.69237,2.845295 -1.11284,0 -1.48789,-0.16681 -2.37933,-1.05825 -1.40332,-1.403325 -1.43229,-2.798474 -0.10958,-5.28007 1.36401,-2.559136 3.56225,-4.440269 6.74765,-5.774269 8.1681,-3.42066 13.28544,-2.964361 17.51947,1.562174 1.56556,1.673697 2.27155,2.947237 3.20026,5.772968 0.61908,1.883623 0.70994,1.993426 2.29102,2.768847 2.55103,1.25115 3.44869,3.25239 2.38313,5.312945 -0.53727,1.03898 -1.84864,1.78721 -3.13233,1.78721 -1.23789,0 -4.71508,-1.79759 -5.93236,-3.066835 -0.54074,-0.56381 -1.22899,-1.67276 -1.52946,-2.46431 -0.30047,-0.791562 -0.61886,-1.319724 -0.70752,-1.173698 -0.0886,0.146027 -0.51699,1.717968 -0.95181,3.493198 l -0.7906,3.227675 2.81511,3.080734 c 1.54831,1.6944 2.97429,3.37818 3.16886,3.74171 0.5607,1.0477 3.01576,11.15968 3.01898,12.43465 0.002,0.91416 -0.20812,1.3641 -1.01543,2.17141 -0.86919,0.86919 -1.22444,1.01831 -2.42598,1.01831 -1.18986,0 -1.55747,-0.15061 -2.37588,-0.97338 z m -3.61421,-44.617585 c -2.18486,-0.774632 -3.75102,-2.888798 -3.73723,-5.04491 0.0154,-2.403117 1.95837,-4.712255 4.38605,-5.212552 2.04553,-0.421541 4.62211,0.895142 5.66751,2.896202 0.54297,1.039326 0.54393,3.629968 0.002,4.672067 -0.58243,1.119414 -1.6322,2.043768 -2.94309,2.591496 -1.26536,0.5287 -2.09183,0.552624 -3.37496,0.0977 z m 1.16379,-17.529539 c -1.24325,-1.238191 -5.46215,-6.744597 -7.22641,-9.431724 -2.458,-3.743756 -4.08382,-6.972298 -4.74951,-9.431514 -0.45887,-1.695241 -0.48122,-2.232964 -0.16977,-4.086197 1.3291,-7.908855 8.81878,-13.01915 16.48925,-11.250821 6.55888,1.512062 11.36623,8.397877 10.25749,14.692304 -0.62533,3.550059 -4.51474,10.187457 -9.93957,16.962164 -2.06363,2.577147 -2.59281,3.069921 -3.29671,3.069921 -0.46117,0 -1.07532,-0.235859 -1.36477,-0.524133 z m 3.95854,-18.069978 c 3.10353,-2.899326 1.38567,-7.46278 -2.80928,-7.46278 -1.29349,0 -1.71195,0.147942 -2.58385,0.913484 -2.32922,2.045081 -2.09024,5.269733 0.51171,6.904604 1.3345,0.838515 3.79525,0.659403 4.88142,-0.355308 z m -47.91057,6.181136 c -3.220731,-1.577772 -4.982731,-4.3749 -4.982731,-7.909954 0,-3.383224 1.5185,-6.041413 4.42379,-7.744029 1.817361,-1.065042 5.399461,-1.31819 7.468971,-0.527836 3.82158,1.459471 6.35382,5.992645 5.47482,9.800887 -0.70036,3.03425 -2.60845,5.387217 -5.30652,6.543748 -1.95961,0.839985 -5.18263,0.765849 -7.07833,-0.162816 z"
       id="path1"
       sodipodi:nodetypes="csssscsssssssccsssssssscssssccsssssssssssssssssscssssscscssssssscccsscssssssssscsssscsssssssssscsscsssscssscsccsssssssssssssssssssss" /></g></svg>
